<svg width="512" height="512" viewBox="0 0 512 512" fill="none" xmlns="http://www.w3.org/2000/svg">
<path d="M472 456H216V344C216 318.539 226.114 294.121 244.118 276.118C262.121 258.114 286.539 248 312 248H376C401.461 248 425.879 258.114 443.882 276.118C461.886 294.121 472 318.539 472 344V456Z" fill="#3397E8"/>
<path d="M320 216H368V264C368 268.243 366.314 272.313 363.314 275.314C360.313 278.314 356.243 280 352 280H336C331.757 280 327.687 278.314 324.686 275.314C321.686 272.313 320 268.243 320 264V216Z" fill="#E0B999"/>
<path d="M424 368H408C405.878 368 403.843 367.157 402.343 365.657C400.843 364.157 400 362.122 400 360C400 357.878 400.843 355.843 402.343 354.343C403.843 352.843 405.878 352 408 352H424C426.122 352 428.157 352.843 429.657 354.343C431.157 355.843 432 357.878 432 360C432 362.122 431.157 364.157 429.657 365.657C428.157 367.157 426.122 368 424 368Z" fill="#2978B8"/>
<path d="M488 456H24V488H488V456Z" fill="#D49073"/>
<path d="M200 264H40C31.1634 264 24 271.163 24 280V408C24 416.837 31.1634 424 40 424H200C208.837 424 216 416.837 216 408V280C216 271.163 208.837 264 200 264Z" fill="#E9EEF2"/>
<path d="M120 360C128.837 360 136 352.837 136 344C136 335.163 128.837 328 120 328C111.163 328 104 335.163 104 344C104 352.837 111.163 360 120 360Z" fill="#D0D2D4"/>
<path d="M24 424H232V456H56C47.5131 456 39.3737 452.629 33.3726 446.627C27.3714 440.626 24 432.487 24 424Z" fill="#D0D2D4"/>
<path d="M376 312H312V360H376V312Z" fill="#2978B8"/>
<path d="M280 368H264C261.878 368 259.843 367.157 258.343 365.657C256.843 364.157 256 362.122 256 360C256 357.878 256.843 355.843 258.343 354.343C259.843 352.843 261.878 352 264 352H280C282.122 352 284.157 352.843 285.657 354.343C287.157 355.843 288 357.878 288 360C288 362.122 287.157 364.157 285.657 365.657C284.157 367.157 282.122 368 280 368Z" fill="#2978B8"/>
<path d="M264 352H216V456H264V352Z" fill="#E0B999"/>
<path d="M216 424H312C312 432.487 308.629 440.626 302.627 446.627C296.626 452.629 288.487 456 280 456H216V424Z" fill="#E9EEF2"/>
<path d="M336.765 399.012L368 424H408C412.243 424 416.313 422.314 419.314 419.314C422.314 416.313 424 412.243 424 408V352H472V424C472 432.487 468.629 440.626 462.627 446.627C456.626 452.629 448.487 456 440 456H357.255C353.053 456 348.891 455.172 345.009 453.564C341.126 451.956 337.599 449.599 334.627 446.627L312 424H264C259.757 424 255.687 422.314 252.686 419.314C249.686 416.313 248 412.243 248 408C248 403.757 249.686 399.687 252.686 396.686C255.687 393.686 259.757 392 264 392H316.775C324.041 392 331.091 394.473 336.765 399.012Z" fill="#F7CCA9"/>
<path d="M320 40H368C384.974 40 401.252 46.7428 413.255 58.7452C425.257 70.7475 432 87.0261 432 104V152H288C279.513 152 271.374 148.629 265.373 142.627C259.371 136.626 256 128.487 256 120V104C256 87.0261 262.743 70.7475 274.745 58.7452C286.748 46.7428 303.026 40 320 40Z" fill="#4F5659"/>
<path d="M320 232H368C376.487 232 384.626 228.629 390.627 222.627C396.629 216.626 400 208.487 400 200V136C391.513 136 383.374 132.629 377.373 126.627C371.371 120.626 368 112.487 368 104H288V200C288 208.487 291.371 216.626 297.373 222.627C303.374 228.629 311.513 232 320 232Z" fill="#F7CCA9"/>
<path d="M320 160C324.418 160 328 156.418 328 152C328 147.582 324.418 144 320 144C315.582 144 312 147.582 312 152C312 156.418 315.582 160 320 160Z" fill="#4F5659"/>
<path d="M368 160C372.418 160 376 156.418 376 152C376 147.582 372.418 144 368 144C363.582 144 360 147.582 360 152C360 156.418 363.582 160 368 160Z" fill="#4F5659"/>
<path d="M400 136H416C420.243 136 424.313 137.686 427.314 140.686C430.314 143.687 432 147.757 432 152V168C432 172.243 430.314 176.313 427.314 179.314C424.313 182.314 420.243 184 416 184H400V136Z" fill="#E0B999"/>
<path d="M368 176C365.878 176 363.843 176.843 362.343 178.343C360.843 179.843 360 181.878 360 184H359.984C359.773 185.776 358.03 192 344 192C329.97 192 328.227 185.776 328.016 184H328C328 181.878 327.157 179.843 325.657 178.343C324.157 176.843 322.122 176 320 176C317.878 176 315.843 176.843 314.343 178.343C312.843 179.843 312 181.878 312 184C312 192.3 318.688 208 344 208C369.312 208 376 192.3 376 184C376 181.878 375.157 179.843 373.657 178.343C372.157 176.843 370.122 176 368 176Z" fill="#E0B999"/>
</svg>
